<?xml version="1.0" encoding="UTF-8" standalone="no"?>
<!DOCTYPE svg PUBLIC "-//W3C//DTD SVG 1.1//EN" "http://www.w3.org/Graphics/SVG/1.1/DTD/svg11.dtd">
<svg version="1.1" xmlns="http://www.w3.org/2000/svg" xmlns:xlink="http://www.w3.org/1999/xlink" preserveAspectRatio="xMidYMid meet" viewBox="0 0 400 400" width="400" height="400"><defs><path d="" id="ao3gTue7g"></path><path d="M223.95 23.27C263.16 23.27 294.95 55.06 294.95 94.27C294.95 151.36 294.95 251.64 294.95 308.74C294.95 347.95 263.16 379.73 223.95 379.73C181.36 379.73 124.56 379.73 81.97 379.73C42.76 379.73 10.97 347.95 10.97 308.74C10.97 251.64 10.97 151.36 10.97 94.27C10.97 55.06 42.76 23.27 81.97 23.27C124.56 23.27 181.36 23.27 223.95 23.27Z" id="c1v4NxD5mp"></path><path d="M61.11 136.79L95.67 136.79L95.67 277.06L61.11 277.06L61.11 136.79Z" id="c4l0SgltEc"></path><path d="M156.15 136.79L190.71 136.79L190.71 277.06L156.15 277.06L156.15 136.79Z" id="b7aE7OH3RS"></path><path d="M95.67 16.16L156.15 16.16L156.15 389.21L95.67 389.21L95.67 16.16Z" id="a2PyrMhhdm"></path><path d="M392.08 96.67C395.22 96.67 397.75 99.21 397.75 102.34C397.75 103.48 397.75 101.21 397.75 102.34C397.75 105.47 395.22 108.01 392.08 108.01C378.37 108.01 342.91 108.01 329.2 108.01C326.07 108.01 323.53 105.47 323.53 102.34C323.53 101.21 323.53 103.48 323.53 102.34C323.53 99.21 326.07 96.67 329.2 96.67C342.91 96.67 378.37 96.67 392.08 96.67Z" id="bcx0VijpA"></path><path d="M374.79 23.93C377.56 22.47 380.99 23.53 382.45 26.29C382.98 27.3 381.92 25.29 382.45 26.29C383.91 29.06 382.86 32.49 380.09 33.96C367.97 40.37 336.61 56.94 324.49 63.35C321.73 64.81 318.29 63.76 316.83 60.99C316.3 59.99 317.36 61.99 316.83 60.99C315.37 58.22 316.42 54.79 319.19 53.33C331.31 46.92 362.67 30.34 374.79 23.93Z" id="e1XAO8sBH4"></path><path d="M380.06 167.96C382.84 169.41 383.91 172.84 382.46 175.61C381.94 176.62 382.99 174.61 382.46 175.61C381.01 178.39 377.59 179.46 374.81 178.01C362.66 171.66 331.23 155.24 319.07 148.89C316.3 147.44 315.22 144.01 316.67 141.24C317.2 140.23 316.15 142.24 316.67 141.24C318.12 138.46 321.55 137.39 324.33 138.84C336.48 145.19 367.91 161.61 380.06 167.96Z" id="eiZt2raEk"></path></defs><g><g><g><g><use xlink:href="#ao3gTue7g" opacity="1" fill-opacity="0" stroke="#000000" stroke-width="1" stroke-opacity="0"></use></g></g><g><use xlink:href="#c1v4NxD5mp" opacity="1" fill="#9d8463" fill-opacity="1"></use></g><g><use xlink:href="#c4l0SgltEc" opacity="1" fill="#fae452" fill-opacity="1"></use></g><g><use xlink:href="#b7aE7OH3RS" opacity="1" fill="#fae452" fill-opacity="1"></use></g><g><use xlink:href="#a2PyrMhhdm" opacity="1" fill="#ffffff" fill-opacity="1"></use></g><g><use xlink:href="#bcx0VijpA" opacity="1" fill="#fb0000" fill-opacity="1"></use><g><use xlink:href="#bcx0VijpA" opacity="1" fill-opacity="0" stroke="#000000" stroke-width="1" stroke-opacity="0"></use></g></g><g><use xlink:href="#e1XAO8sBH4" opacity="1" fill="#fb0000" fill-opacity="1"></use></g><g><use xlink:href="#eiZt2raEk" opacity="1" fill="#fb0000" fill-opacity="1"></use></g></g></g></svg>