<?xml version="1.0" encoding="UTF-8" standalone="no"?>
<!DOCTYPE svg PUBLIC "-//W3C//DTD SVG 1.1//EN" "http://www.w3.org/Graphics/SVG/1.1/DTD/svg11.dtd">
<svg version="1.1" xmlns="http://www.w3.org/2000/svg" xmlns:xlink="http://www.w3.org/1999/xlink" preserveAspectRatio="xMidYMid meet" viewBox="0 0 400 400" width="400" height="400"><defs><path d="M223.95 23.27C263.16 23.27 294.95 55.06 294.95 94.27C294.95 151.36 294.95 251.64 294.95 308.74C294.95 347.95 263.16 379.73 223.95 379.73C181.36 379.73 124.56 379.73 81.97 379.73C42.76 379.73 10.97 347.95 10.97 308.74C10.97 251.64 10.97 151.36 10.97 94.27C10.97 55.06 42.76 23.27 81.97 23.27C124.56 23.27 181.36 23.27 223.95 23.27Z" id="b21dHq1HLR"></path><path d="M171.04 127.5C181.02 127.5 189.12 135.59 189.12 145.57C189.12 170.01 189.12 225.25 189.12 249.69C189.12 259.67 181.02 267.76 171.04 267.76C160.19 267.76 145.73 267.76 134.88 267.76C124.9 267.76 116.8 259.67 116.8 249.69C116.8 225.25 116.8 170.01 116.8 145.57C116.8 135.59 124.9 127.5 134.88 127.5C145.73 127.5 160.19 127.5 171.04 127.5Z" id="b3rnYNGKt"></path><path d="M151.36 21.56L155.39 21.56L155.39 381.39L151.36 381.39L151.36 21.56Z" id="aLjlx3xeq"></path></defs><g><g><g><use xlink:href="#b21dHq1HLR" opacity="1" fill="#808080" fill-opacity="1"></use></g><g><use xlink:href="#b3rnYNGKt" opacity="1" fill="#e0e0e0" fill-opacity="1"></use></g><g><use xlink:href="#aLjlx3xeq" opacity="1" fill="#e0e0e0" fill-opacity="1" class="contact_sensor_split_line"></use></g></g></g></svg>