<?xml version="1.0" encoding="UTF-8" standalone="no"?>
<!DOCTYPE svg PUBLIC "-//W3C//DTD SVG 1.1//EN" "http://www.w3.org/Graphics/SVG/1.1/DTD/svg11.dtd">
<svg version="1.1" xmlns="http://www.w3.org/2000/svg" xmlns:xlink="http://www.w3.org/1999/xlink" preserveAspectRatio="xMidYMid meet" viewBox="0 0 640 640" width="640" height="640"><defs><path d="M65 65L565 65L565 565L65 565L65 65Z" id="a16emSr1OF"></path><path d="M215 120L415 120L415 520L215 520L215 120Z" id="a1Q7XDVmJL"></path><path d="M289.99 170.73L414.99 170.72L415.01 469.1L290 469.1L289.99 170.73Z" id="aI4o4W69"></path><path d="M447.32 196.13L320.84 247.23L290 170.89L416.47 119.79L447.32 196.13Z" id="bKSCmHabW"></path><path d="M296.54 301.7C297.89 298.37 302.09 296.93 305.93 298.48C309.77 300.03 311.79 303.99 310.45 307.31C309.11 310.64 304.9 312.08 301.06 310.53C297.22 308.98 295.2 305.02 296.54 301.7Z" id="amWNNwFCe"></path><path d="M447.33 443.73L320.85 392.63L290 468.97L416.48 520.08L447.33 443.73Z" id="hiueE6AyB"></path><path d="M415 113.14L551.37 113.14L551.37 533.73L415 533.73L415 113.14Z" id="bKLdTBWhx"></path></defs><g><g><g><use xlink:href="#a16emSr1OF" opacity="1" fill="#666666" fill-opacity="1"></use></g><g><use xlink:href="#a1Q7XDVmJL" opacity="1" fill="#ffffff" fill-opacity="1"></use></g><g><use xlink:href="#aI4o4W69" opacity="1" fill="#56d723" fill-opacity="1"></use></g><g><use xlink:href="#bKSCmHabW" opacity="1" fill="#56d723" fill-opacity="1"></use></g><g><use xlink:href="#amWNNwFCe" opacity="1" fill="#666666" fill-opacity="1"></use></g><g><use xlink:href="#hiueE6AyB" opacity="1" fill="#56d723" fill-opacity="1"></use></g><g><use xlink:href="#bKLdTBWhx" opacity="1" fill="#666666" fill-opacity="1"></use></g></g></g></svg>