<?xml version="1.0" encoding="UTF-8"?>
<svg width="456px" height="351px" viewBox="0 0 456 351" version="1.1" xmlns="http://www.w3.org/2000/svg" xmlns:xlink="http://www.w3.org/1999/xlink">
    <title>Group</title>
    <g id="Page-1" stroke="none" stroke-width="1" fill="none" fill-rule="evenodd">
        <g id="Group" transform="translate(0.933594, 0.000000)">
            <polygon class="valve_off_grey" id="Path" fill="#42D653" points="0 350.554688 454.617187 350.554688 454.617188 274.222656 425.945312 312.388672 390.386719 274.222656 360.625 312.388672 324.054688 274.222656 295.980469 312.388672 260.863281 274.222656 227.308594 312.388672 194.144531 274.222656 162.945312 312.388672 128.582031 274.222656 97.9023438 312.388672 62.71875 274.222656 32.515625 312.388672 0 274.222656"></polygon>
            <rect id="Rectangle" fill="#C9C7CF" x="69.0664062" y="0" width="316" height="194" rx="25"></rect>
            <polygon id="Path-2" fill="#818181" points="279.066406 194 279.066406 274 296.563477 287.825195 314.060547 274.222656 314.060547 194"></polygon>
            <polygon id="Path-2" fill="#818181" points="147.066406 194 147.066406 274 164.563477 287.825195 182.060547 274.222656 182.060547 194"></polygon>
            <circle id="Oval" fill="#818181" cx="305.566406" cy="58.5" r="23.5"></circle>
            <circle id="Oval" fill="#818181" cx="305.566406" cy="137.5" r="23.5"></circle>
            <g id="1745699" transform="translate(102.066406, 24.000000)">
                <g id="Group" transform="translate(72.000000, 72.000000) scale(-1, 1) rotate(-180.000000) translate(-72.000000, -72.000000) translate(0.000000, -0.000000)">
                    <circle id="Oval" class="valve_off_grey" fill="#FFFFFF" cx="72" cy="72" r="72"></circle>
                    <path d="M70.3295331,120.035764 C62.8539631,110.974335 55.3230185,100.245159 50.0347448,91.1466691 C43.32519,79.6021495 39.310532,69.4196238 38.2861021,61.3032521 C37.6862106,56.4945798 38.0092291,52.9089224 39.5043431,48.0631891 C40.6395223,44.3663486 42.3284473,40.8177522 44.5618893,37.4544612 C46.0385451,35.2307977 47.339848,33.6371722 49.2595005,31.700732 C52.1297503,28.8192347 54.5385451,27.0310386 57.805646,25.3725563 C61.3219327,23.575095 64.718241,22.5837117 68.8805646,22.1111832 C70.1634093,21.9629389 73.8273616,21.9629389 75.1563518,22.1111832 C82.927253,22.9635875 89.4891422,26.2249606 95.0912052,32.0064857 C100.250271,37.3247475 104.006515,44.4960623 105.520087,51.8990086 C106.156895,55.0028722 106.156895,58.847957 105.520087,62.7856944 C103.378936,76.0164922 93.4484256,94.6952654 77.795874,114.912073 C75.5808903,117.784305 72.1292074,122 72.0092291,122 C71.9815418,122 71.2155266,121.110535 70.3295331,120.035764 Z" id="Path" class="valve_off_grey" fill="#2D98D3" fill-rule="nonzero"></path>
                </g>
            </g>
        </g>
    </g>
</svg>