<?xml version="1.0" encoding="UTF-8" standalone="no"?>
<!DOCTYPE svg PUBLIC "-//W3C//DTD SVG 1.1//EN" "http://www.w3.org/Graphics/SVG/1.1/DTD/svg11.dtd">
<svg version="1.1" xmlns="http://www.w3.org/2000/svg" xmlns:xlink="http://www.w3.org/1999/xlink" preserveAspectRatio="xMidYMid meet" viewBox="0 0 400 400" width="400" height="400"><defs><path d="M226.04 22.42C265.54 22.42 297.56 54.45 297.56 93.95C297.56 150.68 297.56 249.32 297.56 306.05C297.56 345.55 265.54 377.58 226.04 377.58C183.12 377.58 125.9 377.58 82.98 377.58C43.48 377.58 11.45 345.55 11.45 306.05C11.45 249.32 11.45 150.68 11.45 93.95C11.45 54.45 43.48 22.42 82.98 22.42C125.9 22.42 183.12 22.42 226.04 22.42Z" id="a1SO212y0b"></path><path d="M392.82 112.27C395.95 112.27 398.49 114.81 398.49 117.94C398.49 119.07 398.49 116.81 398.49 117.94C398.49 121.07 395.95 123.61 392.82 123.61C379.11 123.61 343.64 123.61 329.93 123.61C326.8 123.61 324.26 121.07 324.26 117.94C324.26 116.81 324.26 119.07 324.26 117.94C324.26 114.81 326.8 112.27 329.93 112.27C343.64 112.27 379.11 112.27 392.82 112.27Z" id="a1cTsMb0e2"></path><path d="M375.52 39.53C378.29 38.07 381.72 39.12 383.18 41.89C383.71 42.9 382.65 40.89 383.18 41.89C384.65 44.66 383.59 48.09 380.82 49.56C368.7 55.96 337.35 72.54 325.23 78.95C322.46 80.41 319.03 79.36 317.57 76.59C317.04 75.58 318.1 77.59 317.57 76.59C316.1 73.82 317.16 70.39 319.93 68.92C332.05 62.52 363.4 45.94 375.52 39.53Z" id="i9aNcnB0x"></path><path d="M380.8 183.56C383.57 185.01 384.65 188.43 383.2 191.21C382.67 192.21 383.72 190.2 383.2 191.21C381.75 193.98 378.32 195.06 375.55 193.61C363.39 187.26 331.96 170.84 319.81 164.49C317.03 163.04 315.96 159.61 317.41 156.84C317.93 155.83 316.88 157.84 317.41 156.84C318.86 154.06 322.28 152.99 325.06 154.44C337.21 160.79 368.65 177.21 380.8 183.56Z" id="aaIulEMu3"></path><path d="M220.09 229.19C220.09 267.48 190.73 298.52 154.51 298.52C118.29 298.52 88.93 267.48 88.93 229.19C88.93 190.9 118.29 159.86 154.51 101.48C190.73 159.86 220.09 190.9 220.09 229.19Z" id="cuk8FB3K"></path></defs><g><g><g><use xlink:href="#a1SO212y0b" opacity="1" fill="#9bcdfa" fill-opacity="1" class="leak_sensor_background"></use></g><g><use xlink:href="#a1cTsMb0e2" opacity="1" fill="#fb0000" fill-opacity="1" class="leak_sensor_trigger_lines"></use></g><g><use xlink:href="#i9aNcnB0x" opacity="1" fill="#fb0000" fill-opacity="1" class="leak_sensor_trigger_lines"></use></g><g><use xlink:href="#aaIulEMu3" opacity="1" fill="#fb0000" fill-opacity="1" class="leak_sensor_trigger_lines"></use></g><g><use xlink:href="#cuk8FB3K" opacity="1" fill="#ffffff" fill-opacity="1" class="leak_sensor_droplet"></use></g></g></g></svg>