<?xml version="1.0" standalone="no"?>
<!DOCTYPE svg PUBLIC "-//W3C//DTD SVG 20010904//EN"
 "http://www.w3.org/TR/2001/REC-SVG-20010904/DTD/svg10.dtd">
<svg version="1.0" xmlns="http://www.w3.org/2000/svg"
 width="140.000000pt" height="140.000000pt" viewBox="0 0 140.000000 140.000000"
 preserveAspectRatio="xMidYMid meet">

<g transform="translate(0.000000,140.000000) scale(0.100000,-0.100000)"
fill="#000000" stroke="none">
<path d="M656 1354 c-23 -22 -29 -55 -24 -131 3 -54 8 -69 27 -84 31 -26 57
-24 86 6 22 21 25 33 25 102 0 95 -15 123 -65 123 -18 0 -41 -7 -49 -16z"/>
<path d="M243 1190 c-29 -12 -45 -44 -37 -74 3 -14 32 -50 64 -80 64 -61 96
-70 130 -36 35 35 26 66 -37 130 -62 62 -85 74 -120 60z"/>
<path d="M1095 1181 c-47 -28 -115 -108 -115 -134 0 -32 35 -67 67 -67 34 0
153 116 153 149 0 24 -41 71 -62 71 -7 0 -26 -8 -43 -19z"/>
<path d="M592 1012 c-232 -83 -296 -386 -118 -550 78 -72 118 -87 226 -87 110
0 154 17 228 89 65 61 94 126 100 216 5 95 -20 168 -84 239 -88 98 -232 136
-352 93z m207 -142 c126 -64 133 -256 12 -336 -94 -62 -232 -30 -280 65 -44
86 -35 167 27 233 65 69 154 83 241 38z"/>
<path d="M65 759 c-28 -17 -35 -29 -35 -66 0 -48 29 -63 123 -63 69 0 81 3
102 25 30 29 32 55 6 86 -17 21 -29 24 -98 27 -47 1 -86 -2 -98 -9z"/>
<path d="M1164 758 c-47 -22 -50 -93 -5 -117 32 -17 163 -14 189 5 33 23 28
93 -8 111 -30 15 -146 16 -176 1z"/>
<path d="M279 373 c-83 -78 -96 -125 -43 -159 35 -24 64 -12 127 55 63 66 71
95 34 129 -35 33 -62 27 -118 -25z"/>
<path d="M1006 399 c-43 -34 -35 -64 37 -136 71 -70 94 -77 132 -38 39 38 32
61 -38 132 -69 68 -89 75 -131 42z"/>
<path d="M674 268 c-31 -15 -44 -50 -44 -121 0 -86 15 -111 67 -115 58 -4 73
20 73 119 0 59 -4 82 -17 97 -23 26 -52 33 -79 20z"/>
</g>
</svg>
