<?xml version="1.0" encoding="UTF-8" standalone="no"?>
<!DOCTYPE svg PUBLIC "-//W3C//DTD SVG 1.1//EN" "http://www.w3.org/Graphics/SVG/1.1/DTD/svg11.dtd">
<svg version="1.1" xmlns="http://www.w3.org/2000/svg" xmlns:xlink="http://www.w3.org/1999/xlink" preserveAspectRatio="xMidYMid meet" viewBox="0 0 400 400" width="400" height="400"><defs><path d="M226.04 22.42C265.54 22.42 297.56 54.45 297.56 93.95C297.56 150.68 297.56 249.32 297.56 306.05C297.56 345.55 265.54 377.58 226.04 377.58C183.12 377.58 125.9 377.58 82.98 377.58C43.48 377.58 11.45 345.55 11.45 306.05C11.45 249.32 11.45 150.68 11.45 93.95C11.45 54.45 43.48 22.42 82.98 22.42C125.9 22.42 183.12 22.42 226.04 22.42Z" id="afqPxZAZR"></path><path d="M207.9 83.94C207.9 70.36 197.14 59.24 183.98 59.24C170.83 59.24 160.07 70.36 160.07 83.94C160.07 97.53 170.83 108.65 183.98 108.65C197.14 108.65 207.9 97.53 207.9 83.94Z" id="b16HJ82NHZ"></path><path d="M249.29 175.95C227.17 175.95 208.03 163.6 197.27 145.69C196.13 143.72 187.04 127.91 185.91 125.93C181.72 118.52 173.95 114.2 165.58 114.2C162.59 114.2 159.6 114.81 156.61 116.05C152.42 117.82 131.5 126.67 93.83 142.6L93.83 200.66L117.74 200.66L117.74 159.28L138.67 150.02L105.79 324.17L130.9 324.17L151.83 225.36L177.54 250.06L177.54 324.17L201.46 324.17L201.46 230.92L176.94 205.6C181.25 183.36 183.64 171.01 184.12 168.54C199.66 188.3 222.98 200.66 249.29 200.66C249.29 195.72 249.29 178.42 249.29 175.95Z" id="a1UnmkcSuP"></path><path d="M392.82 112.27C395.95 112.27 398.49 114.81 398.49 117.94C398.49 119.07 398.49 116.81 398.49 117.94C398.49 121.07 395.95 123.61 392.82 123.61C379.11 123.61 343.64 123.61 329.93 123.61C326.8 123.61 324.26 121.07 324.26 117.94C324.26 116.81 324.26 119.07 324.26 117.94C324.26 114.81 326.8 112.27 329.93 112.27C343.64 112.27 379.11 112.27 392.82 112.27Z" id="b14FxccCIu"></path><path d="M375.52 39.53C378.29 38.07 381.72 39.12 383.18 41.89C383.71 42.9 382.65 40.89 383.18 41.89C384.65 44.66 383.59 48.09 380.82 49.56C368.7 55.96 337.35 72.54 325.23 78.95C322.46 80.41 319.03 79.36 317.57 76.59C317.04 75.58 318.1 77.59 317.57 76.59C316.1 73.82 317.16 70.39 319.93 68.92C332.05 62.52 363.4 45.94 375.52 39.53Z" id="i1vaie4N2y"></path><path d="M380.8 183.56C383.57 185.01 384.65 188.43 383.2 191.21C382.67 192.21 383.72 190.2 383.2 191.21C381.75 193.98 378.32 195.06 375.55 193.61C363.39 187.26 331.96 170.84 319.81 164.49C317.03 163.04 315.96 159.61 317.41 156.84C317.93 155.83 316.88 157.84 317.41 156.84C318.86 154.06 322.28 152.99 325.06 154.44C337.21 160.79 368.65 177.21 380.8 183.56Z" id="bj13XqHEa"></path><path d="M71.34 174.02C72.77 174.02 73.93 175.18 73.93 176.62C73.93 177.8 73.93 178.75 73.93 179.93C73.93 181.36 72.77 182.52 71.34 182.52C65.07 182.52 48.86 182.52 42.59 182.52C41.16 182.52 40 181.36 40 179.93C40 178.75 40 177.8 40 176.62C40 175.18 41.16 174.02 42.59 174.02C48.86 174.02 65.07 174.02 71.34 174.02Z" id="eCVKwDRev"></path><path d="M85.57 117.94C86.68 117.94 87.59 118.84 87.59 119.95C87.59 121.25 87.59 123.13 87.59 124.43C87.59 125.54 86.68 126.44 85.57 126.44C80.7 126.44 68.11 126.44 63.24 126.44C62.13 126.44 61.23 125.54 61.23 124.43C61.23 123.13 61.23 121.25 61.23 119.95C61.23 118.84 62.13 117.94 63.24 117.94C68.11 117.94 80.7 117.94 85.57 117.94Z" id="a2tK3uBA1H"></path><path d="M98.76 227.88C100.48 227.9 101.84 229.3 101.82 231.02C101.81 232.09 101.81 232.24 101.79 233.32C101.77 235.03 100.36 236.4 98.65 236.37C91.16 236.27 71.78 236.02 64.29 235.92C62.58 235.9 61.21 234.49 61.23 232.78C61.24 231.7 61.25 231.56 61.26 230.48C61.28 228.77 62.69 227.4 64.4 227.42C71.89 227.52 91.27 227.78 98.76 227.88Z" id="a1rSD8K77Y"></path></defs><g><g><g><use xlink:href="#afqPxZAZR" opacity="1" fill="#53d769" fill-opacity="1" class="motion_sensor_background"></use></g><g><use xlink:href="#b16HJ82NHZ" opacity="1" fill="#ffffff" fill-opacity="1" class="motion_sensor_person"></use><g><use xlink:href="#b16HJ82NHZ" opacity="1" fill-opacity="0" stroke="#000000" stroke-width="1" stroke-opacity="0"></use></g></g><g><use xlink:href="#a1UnmkcSuP" opacity="1" fill="#ffffff" fill-opacity="1" class="motion_sensor_person"></use><g><use xlink:href="#a1UnmkcSuP" opacity="1" fill-opacity="0" stroke="#000000" stroke-width="1" stroke-opacity="0"></use></g></g><g><use xlink:href="#b14FxccCIu" opacity="1" fill="#fb0000" fill-opacity="1" class="motion_sensor_trigger_lines"></use></g><g><use xlink:href="#i1vaie4N2y" opacity="1" fill="#fb0000" fill-opacity="1" class="motion_sensor_trigger_lines"></use></g><g><use xlink:href="#bj13XqHEa" opacity="1" fill="#fb0000" fill-opacity="1" class="motion_sensor_trigger_lines"></use></g><g><use xlink:href="#eCVKwDRev" opacity="1" fill="#ffffff" fill-opacity="1" class="motion_sensor_trail_lines"></use></g><g><use xlink:href="#a2tK3uBA1H" opacity="1" fill="#ffffff" fill-opacity="1" class="motion_sensor_trail_lines"></use></g><g><use xlink:href="#a1rSD8K77Y" opacity="1" fill="#ffffff" fill-opacity="1" class="motion_sensor_trail_lines"></use></g></g></g></svg>