<?xml version="1.0" encoding="UTF-8" standalone="no"?>
<!DOCTYPE svg PUBLIC "-//W3C//DTD SVG 1.1//EN" "http://www.w3.org/Graphics/SVG/1.1/DTD/svg11.dtd">
<svg version="1.1" xmlns="http://www.w3.org/2000/svg" xmlns:xlink="http://www.w3.org/1999/xlink" preserveAspectRatio="xMidYMid meet" viewBox="0 0 400 400" width="400" height="400"><defs><path d="M226.04 22.42C265.54 22.42 297.56 54.45 297.56 93.95C297.56 150.68 297.56 249.32 297.56 306.05C297.56 345.55 265.54 377.58 226.04 377.58C183.12 377.58 125.9 377.58 82.98 377.58C43.48 377.58 11.45 345.55 11.45 306.05C11.45 249.32 11.45 150.68 11.45 93.95C11.45 54.45 43.48 22.42 82.98 22.42C125.9 22.42 183.12 22.42 226.04 22.42Z" id="deMotnikS"></path><path d="M190.85 83.94C190.85 70.36 180.09 59.24 166.93 59.24C153.78 59.24 143.02 70.36 143.02 83.94C143.02 97.53 153.78 108.65 166.93 108.65C180.09 108.65 190.85 97.53 190.85 83.94Z" id="ba2xuN6SZ"></path><path d="M232.24 175.95C210.12 175.95 190.98 163.6 180.22 145.69C179.08 143.72 169.99 127.91 168.86 125.93C164.67 118.52 156.9 114.2 148.53 114.2C145.54 114.2 142.55 114.81 139.56 116.05C135.37 117.82 114.45 126.67 76.78 142.6L76.78 200.66L100.69 200.66L100.69 159.28L121.62 150.02L88.73 324.17L113.85 324.17L134.78 225.36L160.49 250.06L160.49 324.17L184.4 324.17L184.4 230.92L159.89 205.6C164.19 183.36 166.59 171.01 167.06 168.54C182.61 188.3 205.93 200.66 232.24 200.66C232.24 195.72 232.24 178.42 232.24 175.95Z" id="dsDC8BEe"></path><path d="M392.82 112.27C395.95 112.27 398.49 114.81 398.49 117.94C398.49 119.07 398.49 116.81 398.49 117.94C398.49 121.07 395.95 123.61 392.82 123.61C379.11 123.61 343.64 123.61 329.93 123.61C326.8 123.61 324.26 121.07 324.26 117.94C324.26 116.81 324.26 119.07 324.26 117.94C324.26 114.81 326.8 112.27 329.93 112.27C343.64 112.27 379.11 112.27 392.82 112.27Z" id="bcTE6Pnht"></path><path d="M375.52 39.53C378.29 38.07 381.72 39.12 383.18 41.89C383.71 42.9 382.65 40.89 383.18 41.89C384.65 44.66 383.59 48.09 380.82 49.56C368.7 55.96 337.35 72.54 325.23 78.95C322.46 80.41 319.03 79.36 317.57 76.59C317.04 75.58 318.1 77.59 317.57 76.59C316.1 73.82 317.16 70.39 319.93 68.92C332.05 62.52 363.4 45.94 375.52 39.53Z" id="b4EBqfvD6i"></path><path d="M380.8 183.56C383.57 185.01 384.65 188.43 383.2 191.21C382.67 192.21 383.72 190.2 383.2 191.21C381.75 193.98 378.32 195.06 375.55 193.61C363.39 187.26 331.96 170.84 319.81 164.49C317.03 163.04 315.96 159.61 317.41 156.84C317.93 155.83 316.88 157.84 317.41 156.84C318.86 154.06 322.28 152.99 325.06 154.44C337.21 160.79 368.65 177.21 380.8 183.56Z" id="bRWtz22R"></path></defs><g><g><g><use xlink:href="#deMotnikS" opacity="1" fill="#fd9500" fill-opacity="1" class="occupancy_sensor_background"></use></g><g><use xlink:href="#ba2xuN6SZ" opacity="1" fill="#ffffff" fill-opacity="1" class="occupancy_sensor_person"></use><g><use xlink:href="#ba2xuN6SZ" opacity="1" fill-opacity="0" stroke="#000000" stroke-width="1" stroke-opacity="0"></use></g></g><g><use xlink:href="#dsDC8BEe" opacity="1" fill="#ffffff" fill-opacity="1"  class="occupancy_sensor_person"></use><g><use xlink:href="#dsDC8BEe" opacity="1" fill-opacity="0" stroke="#000000" stroke-width="1" stroke-opacity="0"></use></g></g><g><use xlink:href="#bcTE6Pnht" opacity="1" fill="#fb0000" fill-opacity="1" class="occupancy_sensor_trigger_lines"></use></g><g><use xlink:href="#b4EBqfvD6i" opacity="1" fill="#fb0000" fill-opacity="1" class="occupancy_sensor_trigger_lines"></use></g><g><use xlink:href="#bRWtz22R" opacity="1" fill="#fb0000" fill-opacity="1" class="occupancy_sensor_trigger_lines"></use></g></g></g></svg>