<?xml version="1.0" encoding="UTF-8" standalone="no"?>
<!DOCTYPE svg PUBLIC "-//W3C//DTD SVG 1.1//EN" "http://www.w3.org/Graphics/SVG/1.1/DTD/svg11.dtd">
<svg version="1.1" xmlns="http://www.w3.org/2000/svg" xmlns:xlink="http://www.w3.org/1999/xlink" preserveAspectRatio="xMidYMid meet" viewBox="0 0 485 410" width="485" height="410"><defs><path d="M330 105C323.1 105 317.5 110.6 317.5 117.5C317.5 124.4 323.1 130 330 130C336.9 130 342.5 124.4 342.5 117.5C342.5 110.6 336.9 105 330 105Z" id="b5PcGz8Oui"></path><path d="M307.07 5.22L310.18 5.5L313.26 5.89L316.31 6.38L319.33 6.98L322.31 7.68L325.25 8.48L328.15 9.38L331.01 10.37L333.83 11.46L336.6 12.65L339.32 13.93L342 15.3L344.62 16.76L347.18 18.3L349.69 19.93L352.14 21.64L354.53 23.44L356.85 25.31L359.11 27.27L361.31 29.29L363.43 31.4L365.48 33.57L367.46 35.82L369.36 38.14L371.19 40.52L372.93 42.97L374.6 45.48L376.18 48.06L377.67 50.7L379.07 53.39L380.39 56.14L381.61 58.95L382.73 61.81L383.76 64.72L384.7 67.68L385.53 70.69L386.25 73.75L386.87 76.85L427.57 305L442.5 305L444.04 305.03L445.57 305.12L447.08 305.28L448.57 305.49L450.05 305.76L451.5 306.09L452.93 306.48L454.34 306.91L455.72 307.41L457.08 307.95L458.41 308.55L459.72 309.19L460.99 309.89L462.24 310.63L463.45 311.41L464.63 312.24L465.78 313.12L466.89 314.04L467.97 315L469 316L470 317.03L470.96 318.11L471.88 319.22L472.76 320.37L473.59 321.55L474.37 322.76L475.11 324.01L475.81 325.28L476.45 326.59L477.05 327.92L477.59 329.28L478.09 330.66L478.52 332.07L478.91 333.5L479.24 334.95L479.51 336.43L479.72 337.92L479.88 339.43L479.97 340.96L480 342.5L480 392.5L479.99 393.02L479.96 393.53L479.91 394.03L479.84 394.53L479.75 395.02L479.64 395.5L479.51 395.98L479.36 396.45L479.2 396.91L479.02 397.37L478.82 397.81L478.6 398.24L478.37 398.67L478.13 399.08L477.86 399.49L477.59 399.88L477.3 400.26L476.99 400.63L476.67 400.99L476.34 401.34L475.99 401.67L475.63 401.99L475.26 402.3L474.88 402.59L474.49 402.86L474.08 403.13L473.67 403.37L473.24 403.6L472.81 403.82L472.37 404.02L471.91 404.2L471.45 404.36L470.98 404.51L470.5 404.64L470.02 404.75L469.53 404.84L469.03 404.91L468.53 404.96L468.02 404.99L467.5 405L17.5 405L16.98 404.99L16.47 404.96L15.97 404.91L15.47 404.84L14.98 404.75L14.5 404.64L14.02 404.51L13.55 404.36L13.09 404.2L12.63 404.02L12.19 403.82L11.76 403.6L11.33 403.37L10.92 403.13L10.51 402.86L10.12 402.59L9.74 402.3L9.37 401.99L9.01 401.67L8.66 401.34L8.33 400.99L8.01 400.63L7.7 400.26L7.41 399.88L7.13 399.49L6.87 399.08L6.63 398.67L6.4 398.24L6.18 397.81L5.98 397.37L5.8 396.91L5.64 396.45L5.49 395.98L5.36 395.5L5.25 395.02L5.16 394.53L5.09 394.03L5.04 393.53L5.01 393.02L5 392.5L5 342.5L5.03 340.96L5.12 339.43L5.28 337.92L5.49 336.43L5.76 334.95L6.09 333.5L6.48 332.07L6.91 330.66L7.41 329.28L7.95 327.92L8.55 326.59L9.19 325.28L9.89 324.01L10.63 322.76L11.41 321.55L12.24 320.37L13.12 319.22L14.04 318.11L15 317.03L16 316L17.03 315L18.11 314.04L19.22 313.12L20.37 312.24L21.55 311.41L22.76 310.63L24.01 309.89L25.28 309.19L26.59 308.55L27.92 307.95L29.28 307.41L30.66 306.91L32.07 306.48L33.5 306.09L34.95 305.76L36.43 305.49L37.92 305.28L39.43 305.12L40.96 305.03L42.5 305L57.43 305L98.13 76.89L98.75 73.79L99.48 70.73L100.31 67.72L101.24 64.75L102.27 61.84L103.39 58.98L104.61 56.17L105.93 53.41L107.33 50.72L108.82 48.08L110.4 45.5L112.07 42.99L113.81 40.53L115.63 38.15L117.54 35.83L119.52 33.58L121.57 31.41L123.69 29.3L125.88 27.27L128.14 25.32L130.47 23.44L132.86 21.65L135.31 19.93L137.82 18.3L140.38 16.76L143 15.3L145.67 13.93L148.39 12.65L151.17 11.47L153.98 10.37L156.84 9.38L159.75 8.48L162.69 7.68L165.67 6.98L168.68 6.38L171.73 5.89L174.82 5.5L177.93 5.22L181.06 5.06L184.23 5L300.78 5L303.94 5.06L307.07 5.22ZM41.99 330.01L41.48 330.04L40.97 330.09L40.48 330.16L39.98 330.25L39.5 330.36L39.02 330.49L38.55 330.64L38.09 330.8L37.64 330.98L37.2 331.18L36.76 331.4L36.34 331.63L35.92 331.88L35.52 332.14L35.12 332.41L34.74 332.71L34.37 333.01L34.01 333.33L33.67 333.67L33.33 334.01L33.01 334.37L32.71 334.74L32.41 335.12L32.14 335.52L31.88 335.92L31.63 336.34L31.4 336.76L31.18 337.2L30.98 337.64L30.8 338.09L30.64 338.55L30.49 339.02L30.36 339.5L30.25 339.98L30.16 340.48L30.09 340.97L30.04 341.48L30.01 341.99L30 342.5L30 380L455 380L455 342.5L454.99 341.99L454.96 341.48L454.91 340.97L454.84 340.48L454.75 339.98L454.64 339.5L454.51 339.02L454.36 338.55L454.2 338.09L454.02 337.64L453.82 337.2L453.6 336.76L453.37 336.34L453.12 335.92L452.86 335.52L452.59 335.12L452.29 334.74L451.99 334.37L451.67 334.01L451.33 333.67L450.99 333.33L450.63 333.01L450.26 332.71L449.88 332.41L449.48 332.14L449.08 331.88L448.66 331.63L448.24 331.4L447.8 331.18L447.36 330.98L446.91 330.8L446.45 330.64L445.98 330.49L445.5 330.36L445.02 330.25L444.52 330.16L444.03 330.09L443.52 330.04L443.01 330.01L442.5 330L42.5 330L41.99 330.01ZM182.71 30.03L181.2 30.13L179.68 30.29L178.17 30.51L176.65 30.8L175.13 31.15L173.61 31.57L172.09 32.05L170.57 32.6L169.05 33.21L167.52 33.88L165.99 34.62L164.47 35.42L162.94 36.29L161.41 37.22L159.88 38.21L158.34 39.27L156.81 40.39L155.27 41.58L153.74 42.83L152.2 44.15L150.66 45.52L149.12 46.97L147.58 48.48L146.04 50.05L144.49 51.68L142.95 53.38L141.4 55.15L139.85 56.98L138.3 58.87L136.75 60.82L135.2 62.84L133.65 64.93L132.09 67.08L130.53 69.29L128.98 71.57L127.42 73.91L125.86 76.32L124.3 78.79L122.74 81.32L82.83 305L402.17 305L362.27 81.28L361.83 79.07L361.31 76.89L360.71 74.74L360.05 72.63L359.32 70.55L358.51 68.51L357.64 66.51L356.7 64.54L355.7 62.62L354.63 60.74L353.5 58.9L352.32 57.11L351.07 55.36L349.77 53.66L348.41 52.01L346.99 50.4L345.53 48.85L344.01 47.35L342.45 45.9L340.83 44.5L339.17 43.17L337.46 41.89L335.71 40.66L333.92 39.5L332.09 38.4L330.22 37.35L328.31 36.38L326.37 35.46L324.39 34.62L322.38 33.84L320.33 33.12L318.26 32.48L316.16 31.91L314.03 31.41L311.87 30.99L309.7 30.63L307.5 30.36L305.27 30.16L303.03 30.04L300.78 30L184.23 30L182.71 30.03Z" id="g46Yzj7c3t"></path><path d="M351.96 164.33C350.73 157.53 344.21 153.02 337.43 154.26C330.64 155.5 326.13 162 327.36 168.8C329.2 178.89 343.87 259.64 345.7 269.73C346.94 276.58 353.5 281.03 360.23 279.8C367.03 278.56 371.53 272.06 370.3 265.27C366.63 245.08 353.79 174.42 351.96 164.33Z" id="a2R33A9W1s"></path></defs><g><g><g><use xlink:href="#b5PcGz8Oui" opacity="1" fill="#7f7f7f" fill-opacity="1"></use><g><use xlink:href="#b5PcGz8Oui" opacity="1" fill-opacity="0" stroke="#000000" stroke-width="1" stroke-opacity="0"></use></g></g><g><use xlink:href="#g46Yzj7c3t" opacity="1" fill="#7f7f7f" fill-opacity="1"></use><g><use xlink:href="#g46Yzj7c3t" opacity="1" fill-opacity="0" stroke="#000000" stroke-width="1" stroke-opacity="0"></use></g></g><g><use xlink:href="#a2R33A9W1s" opacity="1" fill="#7f7f7f" fill-opacity="1"></use><g><use xlink:href="#a2R33A9W1s" opacity="1" fill-opacity="0" stroke="#000000" stroke-width="1" stroke-opacity="0"></use></g></g></g></g></svg>