<?xml version="1.0" encoding="UTF-8" standalone="no" ?>
<!DOCTYPE svg PUBLIC "-//W3C//DTD SVG 1.1//EN" "http://www.w3.org/Graphics/SVG/1.1/DTD/svg11.dtd">
<svg xmlns="http://www.w3.org/2000/svg" xmlns:xlink="http://www.w3.org/1999/xlink" version="1.1" width="500" height="500" viewBox="0 0 500 500" xml:space="preserve">
<desc>Created with Fabric.js 4.6.0</desc>
<defs>
</defs>
<g transform="matrix(1 0 0 1 250 125)" id="Ly0Zljdh6uDT129kqPq2c" opacity="1" fill="#fc861d" fill-opacity="1" class="smoke_sensor_box" >
<path style="stroke: rgb(183,90,243); stroke-width: 0; stroke-dasharray: none; stroke-linecap: butt; stroke-dashoffset: 0; stroke-linejoin: miter; stroke-miterlimit: 4; fill-rule: nonzero; opacity: 1;" vector-effect="non-scaling-stroke"  transform=" translate(-222.5, -100)" d="M 0 0 L 445 0 L 445 124.6137 L 402.96864 124.6137 L 350.9804 200 L 88.48046 200 L 36.492219999999996 124.6137 L 0.0011099999999970578 124.6137 z M 94.73049 185.04636 L 149.73026 185.04636 L 149.73026 130.21633 L 94.73048999999999 130.21633 z M 289.72949 184.04945 L 343.72913 184.04945 L 343.72913 130.21633 L 289.72949 130.21633 z M 224.72945 185.04636 L 279.72922 185.04636 L 279.72922 130.21633 L 224.72944999999999 130.21633 z M 159.73052 185.04636 L 214.73029000000002 185.04636 L 214.73029000000002 130.21633 L 159.73052 130.21633 z" stroke-linecap="round" />
</g>
<g transform="matrix(1 0 0 1 249.09 329.19)" id="1bkxD90ICefRta9rtUGNo" pacity="1" fill="#fb0000" fill-opacity="1" class="smoke_sensor_trigger_lines" >
<path style="stroke: none; stroke-width: 1; stroke-dasharray: none; stroke-linecap: butt; stroke-dashoffset: 0; stroke-linejoin: miter; stroke-miterlimit: 4; fill-rule: nonzero; opacity: 1;" vector-effect="non-scaling-stroke"  transform=" translate(-155.85, -60.81)" d="M 171.76478 114.74011 C 171.76478 118.53511 167.28498 121.61471 161.76478 121.61471 C 156.24458 121.61471 151.76478 118.53511 151.76478 114.74011 C 151.76478 98.11741 151.76478 55.11191 151.76478 38.48931 C 151.76478 34.69431 156.24458 31.614710000000002 161.76478 31.614710000000002 C 167.28498 31.614710000000002 171.76478 34.69431 171.76478 38.48931 C 171.76478 55.11201 171.76478 98.11751000000001 171.76478 114.74011 z M 16.50458 73.14822 C 14.0652 76.05536 8.653950000000002 75.53491 4.425230000000001 71.98658999999999 C 0.19651000000000085 68.43826999999999 -1.2556899999999995 63.19959999999999 1.1836900000000008 60.29245999999999 C 11.86856 47.55872999999999 39.51196 14.614609999999992 50.19676 1.8809599999999946 C 52.63614 -1.0261800000000054 58.04739 -0.5057300000000056 62.276109999999996 3.0425899999999944 C 66.50483 6.590909999999994 67.95703 11.829579999999993 65.51764999999999 14.736719999999995 C 54.832779999999985 27.470449999999992 27.189379999999986 60.41457 16.50457999999999 73.14822 z M 246.18369 14.73671 C 243.74431 11.82957 245.19651000000002 6.5908999999999995 249.42523 3.042580000000001 C 253.65395 -0.505739999999999 259.0652 -1.0261899999999988 261.50458 1.880950000000001 C 272.18944999999997 14.61468 299.83285 47.5588 310.51765 60.292449999999995 C 312.95703000000003 63.19958999999999 311.50483 68.43826 307.27611 71.98657999999999 C 303.04739 75.5349 297.63614 76.05534999999999 295.19676000000004 73.14820999999999 C 284.51189000000005 60.41447999999999 256.86849000000007 27.470359999999992 246.18369000000004 14.736709999999995 z" stroke-linecap="round" />
</g>
</svg>
