<?xml version="1.0" encoding="UTF-8" standalone="no"?>
<!DOCTYPE svg PUBLIC "-//W3C//DTD SVG 1.1//EN" "http://www.w3.org/Graphics/SVG/1.1/DTD/svg11.dtd">
<svg version="1.1" xmlns="http://www.w3.org/2000/svg" xmlns:xlink="http://www.w3.org/1999/xlink" preserveAspectRatio="xMidYMid meet" viewBox="0 0 640 640" width="640" height="640"><defs><path d="M636.07 262.6C636.07 298.02 494.86 326.73 320.67 326.73M636.07 262.6C636.07 262.6 636.07 262.6 636.07 262.6C636.07 298.02 494.86 326.73 320.67 326.73C146.48 326.73 5.27 298.02 5.27 262.6M5.27 262.6C5.27 227.17 146.48 198.46 320.67 198.46C494.86 198.46 636.07 227.17 636.07 262.6C636.07 288.25 636.07 493.49 636.07 519.15C636.07 554.57 494.86 583.29 320.67 583.29C146.48 583.29 5.27 554.57 5.27 519.15C5.27 502.04 5.27 416.53 5.27 262.6C5.27 262.6 5.27 262.6 5.27 262.6Z" id="basSqSntZ"></path><path d="M562.76 61.71C562.8 83.43 454.38 101.43 320.59 101.92M562.76 61.71C562.76 61.71 562.76 61.71 562.76 61.71C562.8 83.43 454.38 101.43 320.59 101.92C186.81 102.41 78.32 85.2 78.28 63.48M78.28 63.48C78.23 41.76 186.66 23.75 320.44 23.26C454.23 22.78 562.72 39.99 562.76 61.71C562.79 77.44 563.03 203.29 563.06 219.02C563.1 240.74 454.68 258.75 320.89 259.24C187.11 259.72 78.62 242.51 78.58 220.79C78.56 210.3 78.46 157.86 78.28 63.48C78.28 63.48 78.28 63.48 78.28 63.48Z" id="a1rT1gayZh"></path></defs><g><g><g><use xlink:href="#basSqSntZ" opacity="1" fill="#919191" fill-opacity="1"></use><g><use xlink:href="#basSqSntZ" opacity="1" fill-opacity="0" stroke="#919191" stroke-width="2" stroke-opacity="1"></use></g></g><g><use xlink:href="#a1rT1gayZh" opacity="1" fill="#666666" fill-opacity="1"></use><g><use xlink:href="#a1rT1gayZh" opacity="1" fill-opacity="0" stroke="#666666" stroke-width="2" stroke-opacity="1"></use></g></g></g></g></svg>
