<?xml version="1.0" encoding="UTF-8" standalone="no"?>
<!DOCTYPE svg PUBLIC "-//W3C//DTD SVG 1.1//EN" "http://www.w3.org/Graphics/SVG/1.1/DTD/svg11.dtd">
<svg version="1.1" xmlns="http://www.w3.org/2000/svg" xmlns:xlink="http://www.w3.org/1999/xlink" preserveAspectRatio="xMidYMid meet" viewBox="0 0 640 640" width="640" height="640"><defs><path d="M506.35 123.61L506.35 506.98L133.65 506.98L133.65 123.61L506.35 123.61M112.94 536.47L527.06 536.47L527.06 94.12L527.06 94.12L112.94 94.12L112.94 536.47Z" id="f2pCRcSgv"></path><path d="M506.35 123.61L506.35 506.98L133.65 506.98L133.65 123.61L506.35 123.61M112.94 536.47L527.06 536.47L527.06 94.12L527.06 94.12L112.94 94.12L112.94 536.47Z" id="jvy0XBu5M"></path><path d="M329.41 94.12C329.41 359.53 329.41 506.98 329.41 536.47C329.41 536.47 329.41 536.47 329.41 536.47C318.12 536.47 311.84 536.47 310.59 536.47C310.59 536.47 310.59 536.47 310.59 536.47C310.59 271.06 310.59 123.61 310.59 94.12C310.59 94.12 310.59 94.12 310.59 94.12C321.88 94.12 328.16 94.12 329.41 94.12C329.41 94.12 329.41 94.12 329.41 94.12Z" id="eTErwsP1o"></path><path d="M329.41 94.12C329.41 359.53 329.41 506.98 329.41 536.47C329.41 536.47 329.41 536.47 329.41 536.47C318.12 536.47 311.84 536.47 310.59 536.47C310.59 536.47 310.59 536.47 310.59 536.47C310.59 271.06 310.59 123.61 310.59 94.12C310.59 94.12 310.59 94.12 310.59 94.12C321.88 94.12 328.16 94.12 329.41 94.12C329.41 94.12 329.41 94.12 329.41 94.12Z" id="f1QuyuvIlz"></path></defs><g><g><g><use xlink:href="#f2pCRcSgv" opacity="1" fill="#666666" fill-opacity="1"></use><g><use xlink:href="#f2pCRcSgv" opacity="1" fill-opacity="0" stroke="#000000" stroke-width="1" stroke-opacity="0"></use></g></g><g><use xlink:href="#jvy0XBu5M" opacity="1" fill="#666666" fill-opacity="0"></use><g><use xlink:href="#jvy0XBu5M" opacity="1" fill-opacity="0" stroke="#000000" stroke-width="1" stroke-opacity="0"></use></g></g><g><use xlink:href="#eTErwsP1o" opacity="1" fill="#666666" fill-opacity="1"></use><g><use xlink:href="#eTErwsP1o" opacity="1" fill-opacity="0" stroke="#000000" stroke-width="1" stroke-opacity="0"></use></g></g><g><use xlink:href="#f1QuyuvIlz" opacity="1" fill="#000000" fill-opacity="0"></use><g><use xlink:href="#f1QuyuvIlz" opacity="1" fill-opacity="0" stroke="#000000" stroke-width="1" stroke-opacity="0"></use></g></g></g></g></svg>