<svg width="32px" height="32px" viewBox="0 0 32 32" xmlns="http://www.w3.org/2000/svg">
  <!-- outer casing -->
  <rect x="3.5" y="1" width="25" height="30" rx="3" stroke="#7f7f7f" fill="none" stroke-width="1.2" />

  <!-- sun outline -->
  <circle cx="16" cy="13.75" r="6" stroke="#ff9800" fill="none" stroke-width="1.2" stroke-opacity="0.5" />

  <!-- sun rays, top first going clockwise -->
  <line x1="16" y1="2.5" x2="16" y2="6.5" stroke="#ff9800" stroke-width="1.2" stroke-opacity="0.5" />
  <line x1="24" y1="5.5" x2="21" y2="8.5" stroke="#ff9800" stroke-width="1.2" stroke-opacity="0.5" />
  <line x1="23.25" y1="13.5" x2="27.25" y2="13.5" stroke="#ff9800" stroke-width="1.2" stroke-opacity="0.5" />
  <line x1="21.25" y1="18.75" x2="24.25" y2="21.75" stroke="#ff9800" stroke-width="1.2" stroke-opacity="0.5" />
  <line x1="16" y1="21" x2="16" y2="25" stroke="#ff9800" stroke-width="1.2" stroke-opacity="0.5" />
  <line x1="10.75" y1="18.75" x2="7.75" y2="21.75" stroke="#ff9800" stroke-width="1.2" stroke-opacity="0.5" />
  <line x1="4.75" y1="13.5" x2="8.75" y2="13.5" stroke="#ff9800" stroke-width="1.2" stroke-opacity="0.5" />
  <line x1="8" y1="5.5" x2="11" y2="8.5" stroke="#ff9800" stroke-width="1.2" stroke-opacity="0.5" />

  <!-- grille horizontal lines -->
  <line stroke-linecap="round" x1="7" y1="26" x2="25" y2="26" stroke="#7f7f7f" stroke-width="0.5" />
  <line stroke-linecap="round" x1="7" y1="27.5" x2="25" y2="27.5" stroke="#7f7f7f" stroke-width="0.5" />
  <line stroke-linecap="round" x1="7" y1="29" x2="25" y2="29" stroke="#7f7f7f" stroke-width="0.5" />

  <!-- grille vertical lines -->
  <line stroke-linecap="round" x1="7" y1="26" x2="7" y2="29" stroke="#7f7f7f" stroke-width="0.5" />
  <line stroke-linecap="round" x1="9" y1="26" x2="9" y2="29" stroke="#7f7f7f" stroke-width="0.5" />
  <line stroke-linecap="round" x1="11" y1="26" x2="11" y2="29" stroke="#7f7f7f" stroke-width="0.5" />
  <line stroke-linecap="round" x1="13" y1="26" x2="13" y2="29" stroke="#7f7f7f" stroke-width="0.5" />
  <line stroke-linecap="round" x1="15" y1="26" x2="15" y2="29" stroke="#7f7f7f" stroke-width="0.5" />
  <line stroke-linecap="round" x1="17" y1="26" x2="17" y2="29" stroke="#7f7f7f" stroke-width="0.5" />
  <line stroke-linecap="round" x1="19" y1="26" x2="19" y2="29" stroke="#7f7f7f" stroke-width="0.5" />
  <line stroke-linecap="round" x1="21" y1="26" x2="21" y2="29" stroke="#7f7f7f" stroke-width="0.5" />
  <line stroke-linecap="round" x1="23" y1="26" x2="23" y2="29" stroke="#7f7f7f" stroke-width="0.5" />
  <line stroke-linecap="round" x1="25" y1="26" x2="25" y2="29" stroke="#7f7f7f" stroke-width="0.5" />
</svg>
