<svg id="Capa_1" data-name="Capa 1" xmlns="http://www.w3.org/2000/svg" viewBox="0 0 262.7 264.88"><defs><style>.cls-1{fill:#ffffff;}</style></defs><title>HOMEBRIDGE 1</title><path class="cls-1" d="M262,123.92c-.07,0-.12,0-.19,0l-22-22a4.23,4.23,0,0,1-1.25-3V48.17A19.5,19.5,0,0,0,219.09,28.7H205.35a19.5,19.5,0,0,0-19.48,19.47v.29L153.39,17a19.58,19.58,0,0,0-27.33.23l-110,110a19.46,19.46,0,0,0,0,27.55L26.53,165.2a19.52,19.52,0,0,0,27.44.11L138.51,82a4.26,4.26,0,0,1,6,0l82.83,82.84a4.27,4.27,0,0,1,0,6l-10.18,10.18a4.27,4.27,0,0,1-6,0L153,124.66a19.54,19.54,0,0,0-27.38.24L69.81,181a19.51,19.51,0,0,0,0,27.51l10.33,10.33a19.51,19.51,0,0,0,27.46.07l30.09-29.73a4.27,4.27,0,0,1,6,0l29.92,29.41a4.22,4.22,0,0,1,1.27,3,4.26,4.26,0,0,1-1.25,3L144,254.31c-.13,0-.24-.08-.38-.08a11.11,11.11,0,1,0,11.11,11.11c0-.07,0-.12,0-.19l29.77-29.76a19.48,19.48,0,0,0-.12-27.66l-29.92-29.4a19.53,19.53,0,0,0-27.34,0L96.93,208.1a4.25,4.25,0,0,1-6,0L80.62,197.76a4.27,4.27,0,0,1,0-6l55.85-56.1a4.25,4.25,0,0,1,6-.06l58.15,56.5a19.57,19.57,0,0,0,27.34-.2l10.19-10.19a19.5,19.5,0,0,0,0-27.54L155.28,71.3a19.53,19.53,0,0,0-27.45-.12L43.29,154.46a4.29,4.29,0,0,1-6,0L26.86,144a4.25,4.25,0,0,1,0-6l110-110a4.26,4.26,0,0,1,6-.05l58.3,56.42V48.17a4.26,4.26,0,0,1,4.25-4.25h13.74a4.27,4.27,0,0,1,4.26,4.25V99a19.65,19.65,0,0,0,5.7,13.77l21.89,21.89c0,.14-.08.25-.08.38A11.11,11.11,0,1,0,262,123.92Z" transform="translate(-10.38 -11.57)"/></svg>