<?xml version="1.0" standalone="no"?>
<!DOCTYPE svg PUBLIC "-//W3C//DTD SVG 20010904//EN"
 "http://www.w3.org/TR/2001/REC-SVG-20010904/DTD/svg10.dtd">
<svg version="1.0" xmlns="http://www.w3.org/2000/svg"
 width="1045.000000pt" height="1045.000000pt" viewBox="0 0 1045.000000 1045.000000"
 preserveAspectRatio="xMidYMid meet">
<metadata>
Created by potrace 1.11, written by Peter Selinger 2001-2013
</metadata>
<g transform="translate(0.000000,1045.000000) scale(0.100000,-0.100000)"
fill="#000000" stroke="none">
<path d="M4890 10434 c-19 -2 -91 -9 -160 -14 -1235 -106 -2448 -702 -3311
-1625 -799 -856 -1266 -1889 -1391 -3075 -18 -168 -18 -821 0 -990 131 -1249
650 -2344 1524 -3212 887 -880 2029 -1400 3291 -1499 200 -16 767 -7 947 15
631 76 1172 233 1715 496 831 402 1546 1025 2060 1795 470 704 745 1461 851
2335 22 180 31 747 15 947 -99 1262 -619 2404 -1499 3291 -855 861 -1924 1375
-3157 1518 -122 14 -796 28 -885 18z m460 -1194 c36 -12 91 -38 123 -57 38
-23 236 -207 569 -530 281 -271 512 -492 514 -491 2 2 8 34 14 72 28 174 114
314 252 408 137 92 216 108 548 108 342 0 425 -18 567 -123 100 -74 174 -181
219 -317 17 -51 19 -115 24 -912 l5 -858 349 -349 c348 -348 348 -349 397
-354 71 -9 132 -39 193 -97 75 -71 101 -131 101 -240 0 -67 -5 -95 -23 -134
-34 -75 -84 -129 -154 -167 -59 -32 -69 -34 -158 -34 -80 0 -103 4 -145 25
-104 51 -182 159 -192 269 l-5 56 -372 375 c-330 332 -376 382 -404 441 -63
131 -62 111 -62 1019 0 780 -1 827 -18 859 -35 66 -58 71 -320 71 -256 0 -283
-5 -319 -58 -17 -25 -18 -69 -23 -600 l-5 -574 -885 857 c-487 472 -898 866
-915 876 -36 23 -86 24 -123 5 -15 -8 -789 -777 -1720 -1709 -1427 -1427
-1695 -1699 -1701 -1729 -16 -69 5 -100 196 -290 188 -186 211 -201 280 -183
17 4 90 68 188 165 1653 1633 2502 2460 2558 2494 100 59 183 81 312 81 119 0
168 -12 280 -67 53 -26 219 -189 1384 -1351 863 -862 1337 -1343 1362 -1381
58 -87 91 -200 92 -311 2 -107 -13 -174 -60 -275 -32 -68 -56 -95 -257 -298
-134 -135 -243 -237 -276 -257 -203 -123 -481 -110 -666 31 -28 21 -455 432
-950 913 -570 554 -911 879 -933 888 -75 32 -40 64 -978 -878 -478 -479 -873
-880 -880 -892 -17 -30 -16 -92 1 -125 8 -15 92 -104 188 -198 128 -127 181
-173 205 -179 73 -15 84 -6 533 439 559 554 576 570 664 612 195 93 418 79
588 -36 42 -28 254 -229 565 -536 535 -527 551 -546 595 -689 29 -91 30 -242
4 -330 -42 -141 -46 -147 -567 -670 l-488 -490 -11 -64 c-14 -79 -39 -129 -92
-187 -167 -181 -475 -115 -564 121 -75 198 68 429 279 452 l52 5 458 457 c252
251 465 468 473 483 18 34 18 71 0 106 -14 28 -921 924 -966 955 -32 22 -88
22 -125 -2 -16 -10 -251 -237 -521 -504 -477 -470 -494 -486 -575 -526 -150
-74 -301 -86 -454 -36 -126 42 -159 67 -396 304 -205 205 -230 233 -263 301
-47 99 -66 177 -66 275 0 99 19 177 67 275 35 71 74 112 932 978 493 497 916
918 941 937 111 81 219 115 363 115 117 0 223 -30 315 -90 39 -25 379 -348
940 -892 483 -469 899 -872 925 -895 42 -39 51 -43 99 -43 l52 0 183 182 c190
190 211 218 198 281 -6 26 -254 279 -1288 1315 -705 706 -1294 1290 -1309
1298 -33 17 -85 18 -115 1 -12 -7 -616 -597 -1342 -1312 -963 -949 -1336
-1310 -1380 -1336 -184 -111 -420 -114 -611 -6 -67 37 -453 415 -512 500 -21
32 -51 88 -66 125 -24 61 -26 79 -27 207 0 155 11 201 77 314 24 42 464 488
1713 1740 924 926 1713 1711 1752 1746 83 71 175 120 266 140 89 21 244 14
327 -15z"/>
</g>
</svg>
